Coordinates
version=1
nRows=14
nColumns=40
inDegrees=yes

Units are S.I. units (second, meters, Newtons, ...)
Angles are in degrees.

endheader
time	pelvis_tilt	pelvis_list	pelvis_rotation	pelvis_tx	pelvis_ty	pelvis_tz	hip_flexion_r	hip_adduction_r	hip_rotation_r	knee_angle_r	knee_angle_r_beta	ankle_angle_r	subtalar_angle_r	mtp_angle_r	hip_flexion_l	hip_adduction_l	hip_rotation_l	knee_angle_l	knee_angle_l_beta	ankle_angle_l	subtalar_angle_l	mtp_angle_l	lumbar_extension	lumbar_bending	lumbar_rotation	arm_flex_r	arm_add_r	arm_rot_r	elbow_flex_r	pro_sup_r	wrist_flex_r	wrist_dev_r	arm_flex_l	arm_add_l	arm_rot_l	elbow_flex_l	pro_sup_l	wrist_flex_l	wrist_dev_l
     25.12500000	     -5.39590156	     -5.64970313	      0.94312985	      1.02070888	      0.92121176	      0.43181862	     22.82925089	      2.30034803	    -13.98512664	     17.87773087	     17.87773087	      3.72205681	     -1.59022123	     -0.64806656	      2.53124776	    -11.78690473	     -9.48763676	     33.04264179	     33.04264179	     13.32691473	     -7.72658061	    -13.31421052	    -10.22654727	      5.16902724	      0.84485793	    -11.87913514	    -12.04668489	     -8.98471201	     31.61658573	     46.85080351	      0.00000000	      0.00000000	     14.81761554	    -18.11307757	     -9.27714843	     93.43128359	     48.13177056	      0.00000000	      0.00000000
     25.13685714	     -5.50947177	     -5.82423935	      1.31966775	      1.02034674	      0.92216140	      0.43453130	     22.04857873	      2.65788396	    -14.42474223	     17.20963429	     17.20963429	      3.77059766	     -1.40417083	     -1.55394864	      4.44787694	    -12.36143462	     -7.88580586	     36.44992613	     36.44992613	      9.20919081	    -11.61758072	    -17.59105848	    -10.16296780	      5.28280765	      1.25161011	    -11.21831969	    -12.02983036	    -11.28368302	     34.56748159	     46.80029376	      0.00000000	      0.00000000	     14.09616301	    -17.33215856	     -8.41893207	     90.09749574	     48.05519927	      0.00000000	      0.00000000
     25.14871429	     -5.59263938	     -6.10215879	      1.70118137	      1.01984870	      0.92291457	      0.43724153	     21.26558303	      3.13613685	    -14.86769329	     16.57911837	     16.57911837	      4.04505384	     -1.16793826	     -1.67774785	      6.79141482	    -13.15102041	     -6.46535018	     40.74146167	     40.74146167	      6.85697398	    -13.49306881	    -17.37976252	    -10.12091424	      5.46423649	      1.10060303	     -9.49808501	    -12.33893687	    -11.58096782	     35.77828354	     46.77239141	      0.00000000	      0.00000000	     12.59253548	    -16.89261060	     -8.03968893	     88.08716018	     47.98947782	      0.00000000	      0.00000000
     25.16057143	     -5.61584913	     -6.22280069	      2.06529974	      1.01925681	      0.92355533	      0.43965999	     20.50448845	      3.40472898	    -15.30863721	     16.12429493	     16.12429493	      4.33575844	     -0.76254816	     -2.24963956	      9.16878005	    -13.50303208	     -4.69297212	     44.98741970	     44.98741970	      4.24664134	    -15.78064812	    -16.39869797	    -10.10718016	      5.54367396	      1.09618351	     -8.18975822	    -12.66646162	    -12.17969647	     38.37260943	     46.68409702	      0.00000000	      0.00000000	     11.64621721	    -16.16491639	     -7.96061087	     84.52142620	     47.92518284	      0.00000000	      0.00000000
     25.17242857	     -5.67101861	     -6.51677780	      2.37810624	      1.01844994	      0.92395406	      0.44222586	     19.79066661	      3.90212657	    -15.73098691	     15.61352646	     15.61352646	      4.53973298	     -0.49310540	     -2.43611486	     11.73831847	    -14.12094406	     -3.20639751	     49.28690199	     49.28690199	      1.74422035	    -16.99284738	    -15.27072038	    -10.12330597	      5.72168788	      1.08180088	     -6.35918936	    -13.09188814	    -12.45387855	     40.09295153	     46.63534089	      0.00000000	      0.00000000	     10.28465457	    -15.62695705	     -7.51014582	     82.29442855	     47.85071096	      0.00000000	      0.00000000
     25.18428571	     -5.66802873	     -6.79326641	      2.69836022	      1.01749283	      0.92423032	      0.44456931	     19.10835204	      4.34934478	    -16.15655324	     15.26546956	     15.26546956	      4.84478625	     -0.23286064	     -2.69294253	     14.32263482	    -14.54052727	     -1.56983671	     53.42705492	     53.42705492	     -0.51089221	    -17.89717504	    -13.48998614	    -10.20742849	      5.92912982	      0.98666061	     -4.37143442	    -13.57566874	    -12.69570393	     42.05775202	     46.57827968	      0.00000000	      0.00000000	      8.97882932	    -15.10253903	     -7.17591821	     79.68786948	     47.77654090	      0.00000000	      0.00000000
     25.19614286	     -5.58862332	     -6.70022498	      2.90214910	      1.01639582	      0.92463563	      0.44651064	     18.44922578	      4.33060272	    -16.57700339	     15.17695666	     15.17695666	      5.13035531	      0.45674255	     -3.59593310	     16.94998044	    -14.15921453	      0.21840300	     57.74365926	     57.74365926	     -0.06828355	    -17.61249297	     -5.06883931	    -10.32491918	      5.82166581	      1.74009038	     -3.97451362	    -14.27591256	    -12.86330127	     47.40652714	     46.34960056	      0.00000000	      0.00000000	      9.38126031	    -13.75284201	     -7.27403243	     73.42528748	     47.68673505	      0.00000000	      0.00000000
     25.20800000	     -5.62572541	     -6.85618632	      3.08029083	      1.01506344	      0.92472331	      0.44859039	     17.89409620	      4.64108778	    -16.85022946	     14.94849830	     14.94849830	      5.42676356	      0.80150314	     -3.91561291	     19.64512842	    -14.12582978	      1.74717297	     61.47787585	     61.47787585	     -0.43055267	    -17.43154305	      0.04423135	    -10.39788408	      5.90630612	      2.51241983	     -2.93540286	    -15.00014156	    -13.28788662	     51.27434874	     46.18779642	      0.00000000	      0.00000000	      8.90980543	    -13.10173267	     -5.97603079	     69.72884784	     47.54367235	      0.00000000	      0.00000000
     25.21985714	     -5.64420146	     -7.00836482	      3.26911545	      1.01360277	      0.92486451	      0.45064882	     17.35614269	      4.94321673	    -17.14325533	     14.76479775	     14.76479775	      5.71399875	      1.07713245	     -4.00413484	     22.08665956	    -14.09562382	      3.03962299	     64.39871841	     64.39871841	     -1.83006335	    -17.68922284	      1.18660191	    -10.47395333	      5.90283925	      2.16006305	     -0.30899586	    -15.34689392	    -13.49249930	     53.34438753	     46.12775347	      0.00000000	      0.00000000	      7.37226386	    -12.93551365	     -5.64704455	     66.93617255	     47.46722816	      0.00000000	      0.00000000
     25.23171429	     -5.60695282	     -7.15823976	      3.40750013	      1.01212881	      0.92505109	      0.45252564	     16.77686862	      5.24023440	    -17.34064723	     14.64535157	     14.64535157	      6.19857222	      1.41513033	     -4.13930375	     24.37002250	    -13.98410627	      4.19833217	     66.85628300	     66.85628300	     -2.64518619	    -17.73269371	      2.40626393	    -10.62987975	      5.97932669	      2.18478467	      2.22901967	    -15.87416542	    -13.47088660	     55.48021887	     46.05721899	      0.00000000	      0.00000000	      6.14380577	    -12.43618697	     -5.44967669	     64.03492643	     47.39715079	      0.00000000	      0.00000000
     25.24357143	     -5.53261127	     -7.10575374	      3.41277473	      1.01051535	      0.92546662	      0.45422533	     16.19561076	      5.28893022	    -17.57091046	     14.63047259	     14.63047259	      6.70896911	      2.11466085	     -4.00249795	     26.52966104	    -13.64405168	      4.98075049	     68.96750911	     68.96750911	     -1.91288725	    -17.34777231	      6.17685413	    -10.82601560	      5.85420385	      3.11191491	      3.61740190	    -17.13015715	    -12.47313566	     59.47719078	     45.85785670	      0.00000000	      0.00000000	      6.60634456	    -11.09860846	     -5.71795967	     57.85827856	     47.32950418	      0.00000000	      0.00000000
     25.25542857	     -5.54672412	     -7.18839107	      3.47946429	      1.00882192	      0.92572733	      0.45597734	     15.64221011	      5.53758092	    -17.67932230	     14.41544521	     14.41544521	      7.06189164	      2.39129535	     -4.01247673	     28.63704254	    -13.51947635	      5.61566982	     70.34058528	     70.34058528	     -2.07421187	    -17.35013444	      6.31079472	    -10.95198956	      5.80449357	      2.97332072	      6.54060971	    -17.39020657	    -12.55403354	     61.56503671	     45.79914837	      0.00000000	      0.00000000	      5.04931412	    -10.86473136	     -5.38327804	     55.51623109	     47.25705783	      0.00000000	      0.00000000
     25.26728571	     -5.53488869	     -7.15383051	      3.49069724	      1.00709692	      0.92620091	      0.45759853	     15.02388391	      5.66333238	    -17.75895751	     14.15830909	     14.15830909	      7.45548649	      2.87107662	     -3.92645046	     30.54851456	    -13.31329536	      5.93782544	     71.13193385	     71.13193385	     -1.79893205	    -17.39103359	      6.68939435	    -11.12942486	      5.66291342	      2.92326382	      9.39529932	    -17.80823876	    -11.87775186	     64.09753296	     45.69504512	      0.00000000	      0.00000000	      4.02689602	    -10.46155549	     -5.20935506	     51.77047747	     47.18409589	      0.00000000	      0.00000000
     25.27914286	     -5.55762934	     -7.16409640	      3.53536003	      1.00529480	      0.92670208	      0.45912879	     14.41516046	      5.84010279	    -17.89032184	     13.82683191	     13.82683191	      7.76072680	      3.24140206	     -3.77829087	     32.41469329	    -13.21465275	      6.05519530	     71.36059559	     71.36059559	     -1.34729822	    -17.51967595	      6.96110133	    -11.27648922	      5.55731425	      3.00075240	     12.13311038	    -18.25181595	    -11.09589570	     66.42074579	     45.59675520	      0.00000000	      0.00000000	      3.02041268	    -10.01612522	     -5.04730684	     48.37534320	     47.11769872	      0.00000000	      0.00000000
